# xmcd
#
# Track frame offsets: 
#        150
#        18304
#        35448
#        50767
#        68742
#        86287
#        102179
#        115585
#        130770
#        148866
#        162402
#
# Disc length: 2361 seconds
#
# Revision: 4
# Processed by: cddbd v1.5.2PL0 Copyright (c) Steve Scherf et al.
# Submitted via: ExactAudioCopy v1.0b3
#
DISCID=8d09370b
DTITLE=Montgomery Gentry - Back When I Knew It All
DYEAR=2008
DGENRE=Country
TTITLE0=The Big Revival
TTITLE1=Long Line Of Losers
TTITLE2=Now You're Talkin'
TTITLE3=Back When I Knew It All
TTITLE4=Roll With Me
TTITLE5=One In Every Crowd
TTITLE6=Look Some More
TTITLE7=I Pick My Parties (Featuring Toby Keith)
TTITLE8=One Trip
TTITLE9=It Ain't About Easy
TTITLE10=God Knows Who I Am (Featuring Lillie Mae Rische of Jypsi)
EXTD=YEAR: 2008
EXTT0=
EXTT1=
EXTT2=
EXTT3=
EXTT4=
EXTT5=
EXTT6=
EXTT7=
EXTT8=
EXTT9=
EXTT10=
PLAYORDER=
